<?xml version="1.0" encoding="UTF-8" standalone="no"?>
<svg
   width="20"
   height="20"
   viewBox="0 0 20 20"
   version="1.1"
   id="svg6"
   sodipodi:docname="key-icon.svg"
   inkscape:version="1.2.2 (732a01da63, 2022-12-09)"
   xmlns:inkscape="http://www.inkscape.org/namespaces/inkscape"
   xmlns:sodipodi="http://sodipodi.sourceforge.net/DTD/sodipodi-0.dtd"
   xmlns="http://www.w3.org/2000/svg"
   xmlns:svg="http://www.w3.org/2000/svg"
   xmlns:rdf="http://www.w3.org/1999/02/22-rdf-syntax-ns#"
   xmlns:cc="http://creativecommons.org/ns#"
   xmlns:dc="http://purl.org/dc/elements/1.1/">
  <metadata
     id="metadata12">
    <rdf:RDF>
      <cc:Work
         rdf:about="">
        <dc:format>image/svg+xml</dc:format>
        <dc:type
           rdf:resource="http://purl.org/dc/dcmitype/StillImage" />
        <dc:title>key</dc:title>
      </cc:Work>
    </rdf:RDF>
  </metadata>
  <defs
     id="defs10" />
  <sodipodi:namedview
     pagecolor="#ffffff"
     bordercolor="#666666"
     borderopacity="1"
     objecttolerance="10"
     gridtolerance="10"
     guidetolerance="10"
     inkscape:pageopacity="0"
     inkscape:pageshadow="2"
     inkscape:window-width="1920"
     inkscape:window-height="1094"
     id="namedview8"
     showgrid="false"
     inkscape:zoom="11.8"
     inkscape:cx="2.7118644"
     inkscape:cy="10"
     inkscape:window-x="-11"
     inkscape:window-y="-11"
     inkscape:window-maximized="1"
     inkscape:current-layer="svg6"
     inkscape:showpageshadow="2"
     inkscape:pagecheckerboard="0"
     inkscape:deskcolor="#d1d1d1" />
  <title
     id="title2">key</title>
  <path
     d="m 14.637481,6.2900248 a 1.4283425,1.4283425 0 0 1 -1.391258,-1.3912427 1.3912571,1.3912571 0 0 1 2.782514,0 1.4283425,1.4283425 0 0 1 -1.391256,1.3912427 z M 13.246223,1.6525488 A 5.1475983,5.1475983 0 0 0 8.1450012,6.7537723 6.3162427,6.3162427 0 0 0 8.7942592,9.3507422 L 1.6525488,16.492475 v 1.854976 H 5.3625296 V 16.492475 H 7.2175199 V 14.637481 H 9.0725002 L 12.040476,11.669504 A 5.4258453,5.4258453 0 0 0 13.246223,11.855 5.1475983,5.1475983 0 0 0 18.347451,6.7537724 5.1475983,5.1475983 0 0 0 13.246223,1.6525488 Z"
     id="path4"
     style="opacity:0.98;fill:#103265;fill-opacity:1;stroke-width:0.92738" />
</svg>
