<?xml version="1.0" encoding="UTF-8" standalone="no"?>
<svg
   viewBox="0 -256 15.000001 11.496774"
   id="svg3001"
   version="1.1"
   inkscape:version="1.2.2 (732a01da63, 2022-12-09)"
   width="15.000001"
   height="11.496775"
   sodipodi:docname="ok-blue-icon.svg"
   xmlns:inkscape="http://www.inkscape.org/namespaces/inkscape"
   xmlns:sodipodi="http://sodipodi.sourceforge.net/DTD/sodipodi-0.dtd"
   xmlns="http://www.w3.org/2000/svg"
   xmlns:svg="http://www.w3.org/2000/svg"
   xmlns:rdf="http://www.w3.org/1999/02/22-rdf-syntax-ns#"
   xmlns:cc="http://creativecommons.org/ns#"
   xmlns:dc="http://purl.org/dc/elements/1.1/">
  <metadata
     id="metadata3011">
    <rdf:RDF>
      <cc:Work
         rdf:about="">
        <dc:format>image/svg+xml</dc:format>
        <dc:type
           rdf:resource="http://purl.org/dc/dcmitype/StillImage" />
      </cc:Work>
    </rdf:RDF>
  </metadata>
  <defs
     id="defs3009" />
  <sodipodi:namedview
     pagecolor="#ffffff"
     bordercolor="#666666"
     borderopacity="1"
     objecttolerance="10"
     gridtolerance="10"
     guidetolerance="10"
     inkscape:pageopacity="0"
     inkscape:pageshadow="2"
     inkscape:window-width="1280"
     inkscape:window-height="729"
     id="namedview3007"
     showgrid="false"
     inkscape:zoom="29.166675"
     inkscape:cx="8.9999975"
     inkscape:cy="6.8914267"
     inkscape:window-x="-8"
     inkscape:window-y="-8"
     inkscape:window-maximized="1"
     inkscape:current-layer="svg3001"
     inkscape:showpageshadow="2"
     inkscape:pagecheckerboard="0"
     inkscape:deskcolor="#d1d1d1" />
  <g
     transform="matrix(0.00967742,0,0,-0.00967742,-1.1709678,-244.36774)"
     id="g3003"
     style="stroke:none;stroke-opacity:1;fill:#103265;fill-opacity:1">
    <path
       d="m 1671,970 q 0,-40 -28,-68 L 919,178 783,42 Q 755,14 715,14 675,14 647,42 L 511,178 149,540 q -28,28 -28,68 0,40 28,68 l 136,136 q 28,28 68,28 40,0 68,-28 l 294,-295 656,657 q 28,28 68,28 40,0 68,-28 l 136,-136 q 28,-28 28,-68 z"
       id="path3005"
       inkscape:connector-curvature="0"
       style="fill:#103265;stroke:none;stroke-opacity:1;fill-opacity:1" />
  </g>
</svg>
